# xmcd
#
# Track frame offsets: 
#        150
#        11472
#        23607
#        33912
#        43709
#        56205
#        68547
#        82272
#        93374
#        106115
#        118916
#        132263
#        146365
#        155970
#        169533
#        181434
#        194636
#        206847
#        219655
#        232078
#        244886
#        256379
#        268313
#        280426
#        291671
#        302370
#
# Disc length: 4165 seconds
#
# Revision: 0
# Processed by: cddbd v1.5.2PL0 Copyright (c) Steve Scherf et al.
# Submitted via: ExactAudioCopy v0.95a5
#
DISCID=9110431a
DTITLE=Lightnin' Hopkins - Collected Works, Vol. 2, Disc C
DYEAR=2007
DGENRE=Blues
TTITLE0=Lil' Son Jackson - Roberta Blues
TTITLE1=Lil' Son Jackson - Freedom Train Blues
TTITLE2=Lil' Son Jackson - Ground Hog Blues
TTITLE3=Lil' Son Jackson - Bad Whiskey - Bad Women
TTITLE4=Lil' Son Jackson - Gone With The Wind
TTITLE5=Lil' Son Jackson - No Money, No Love
TTITLE6=Lil' Son Jackson - Talkin' Boogie
TTITLE7=Lil' Son Jackson - Milford Blues
TTITLE8=Lil' Son Jackson - Cairo Blues
TTITLE9=Lil' Son Jackson - Evil Blues
TTITLE10=Lil' Son Jackson - Gamblin' Blues
TTITLE11=Lil' Son Jackson - Homeless Blues
TTITLE12=Manny Nichols - Walkin' Blues
TTITLE13=Manny Nichols - Forgive Me Baby
TTITLE14=Manny Nichols - Walking Talking Blues
TTITLE15=Manny Nichols - Tall Skinny Mama Blues
TTITLE16=Manny Nichols - Worried Life
TTITLE17=Manny Nichols - Forgive Me
TTITLE18=Manny Nichols - No One To Love Me
TTITLE19=Manny Nichols - Throw A Little Boogie
TTITLE20=Thunder Smith - Can't Do Like You Used To
TTITLE21=Thunder Smith - West Coast Blues
TTITLE22=Thunder Smith - Little Mama Boogie
TTITLE23=Thunder Smith - Cruel Hearted Woman
TTITLE24=Thunder Smith - Big Stars Are Falling
TTITLE25=Thunder Smith - Santa Fe Blues
EXTD=
EXTT0=
EXTT1=
EXTT2=
EXTT3=
EXTT4=
EXTT5=
EXTT6=
EXTT7=
EXTT8=
EXTT9=
EXTT10=
EXTT11=
EXTT12=
EXTT13=
EXTT14=
EXTT15=
EXTT16=
EXTT17=
EXTT18=
EXTT19=
EXTT20=
EXTT21=
EXTT22=
EXTT23=
EXTT24=
EXTT25=
PLAYORDER=
